# xmcd
#
# Track frame offsets:
#	150
#	1432
#	38961
#	49972
#	54495
#	57087
#	61749
#	64119
#	74512
#	98353
#	160440
#	279808
#
# Disc length: 3743 seconds
# Revision: 1
# Processed by: cddbd v1.5.2PL0 Copyright (c) Steve Scherf et al.
# Submitted via: dBpowerAMP V12.0
#
DISCID=9f0e9d0c
DTITLE=Hale Dwoskin - The Inner Circle Retreat 03 CD 11
DYEAR=2007
DGENRE=Speech
TTITLE0=Intro Music
TTITLE1=Resisting Your Feelings - Wanting Oneness
TTITLE2=Can You Find the One Who Is Confused
TTITLE3=Instructions
TTITLE4=Sharing
TTITLE5=Sharing - Write Down Your Insights
TTITLE6=Sharing
TTITLE7=Sharing - Have a Wanting to Figure It Out Party
TTITLE8=Sharing - Artificial Identities
TTITLE9=How to Welcome What Is - Looking Through the Illusion Called Me
TTITLE10=About Telling Stories - Wanting to Maintain the High State
TTITLE11=Concluding Music
EXTD=
EXTT0=
EXTT1=
EXTT2=
EXTT3=
EXTT4=
EXTT5=
EXTT6=
EXTT7=
EXTT8=
EXTT9=
EXTT10=
EXTT11=
PLAYORDER=
